<svg width="475" height="475" viewBox="0 0 475 475" xmlns="http://www.w3.org/2000/svg"><title>collibri</title><g fill="none" fill-rule="evenodd"><path fill="#EE3023" d="M0 0h475v475H0z"/><path d="M120.175 139.99c20.02-5.276 36.253-2.646 47 9 2.125 2.76 2.963 6.173 2 9-6.667 27.38-1.742 50 15 69 16.923 19.48 42.57 35.61 77 49 8.355 2.707 8.785 14.283 1 18-17.372 7.94-28.867 15.87-35 23-4.48 6.504-5.218 11.754-2 18 5.204 13.056 25.49 25.607 52 33 11.53 3.532 23.25 5.554 33 6 4.006.11 8.803 1.168 12-1 3.198-2.17 6.24-18.28 7-34 .043-19.498-2.578-40.95-8-60-7.862-28.2-22.388-57.55-44-88-3.744-6.243-.524-14.345 6-16 38.106-7.876 71.485-25.663 101-53 19.683-19.342 34.664-39.365 45-59 5.734-11.16 9.738-21.502 12-30-7.815 1.924-19.42 6.266-34 13-25.534 10.934-59 28.255-83 43-29.08 16.874-55.233 33.745-79 50-3.87 3.01-9.463 2.398-13-1-15.885-17.688-30.557-30.436-44-39-18.357-11.002-30.618-11.995-44-4-9.276 5.986-15.554 17.167-19 35-.14 1.93-1.267 3.935-3 5-2.274 2.492-4.63 4.658-7 7 1.623-.735 3.208-1.27 5-2zm137 145c-1.24-.546-8.158-3.246-12-5-30.136-12.688-52.948-28.017-69-46-18.794-21.933-24.458-47.93-17-78-7.595-8.7-19.92-10.7-37-6-25.22 6.966-67.76 56.325-71 54-2.84-2.403 29.304-45.048 64-76 3.81-20.145 11.47-33.81 23-41 17.668-10.848 34.003-9.067 55 4 14.18 8.607 29.504 21.938 46 40 23.79-16.572 50.11-33.57 79-51 45.002-26.48 135.977-71.67 134-54-2.405 16.74-15.292 59.29-61 103-27.827 26.302-60.338 44.136-96 53-1.816 1.21-7.732 2.492-10 3 1.344 1.817 4.47 7.314 6 9 18.69 28.343 31.685 55.703 39 82 12.12 42.83 9.674 90.15-1 104-11.022 12.395-98.487-4.523-114-41-7.676-16.76 2.32-32.745 30-48 3.162-1.34 10.785-5.448 12-6zM126.188 125.03c-.48 5.563 2.284 12.02 11 12.98 3.48 1.49-5.19 4.483-26.013 8.98 2.303-6.97 4.303-11.636 6-14 1.892-3.66 3.082-9.45 9.013-7.96zm55.563 74.724c-.145-.46-.273-.92-.384-1.375-3.693-10.84-4.038-21.19-.957-30.902.834-2.632 3.645-4.09 6.277-3.255s4.09 3.646 3.254 6.278c-2.426 7.655-2.132 15.892.962 24.858l.088.255.06.263c.064.28.143.57.238.873.6 1.9 1.63 3.865 3.713 7.275l.36.588.365.593c.298.485.517.846.73 1.2 1.428 2.365.668 5.438-1.697 6.864-2.364 1.427-5.437.667-6.864-1.698-.2-.33-.408-.673-.695-1.14l-.363-.59-.37-.603c-2.49-4.078-3.8-6.576-4.716-9.486zm135.91 3.01c-2.638.82-5.44-.654-6.26-3.29-.82-2.638.655-5.44 3.292-6.26 31.117-9.668 56.02-20.81 74.692-33.373 18.784-12.638 34.803-26.37 48.066-41.185 1.842-2.058 5.003-2.233 7.06-.39 2.058 1.84 2.233 5.002.39 7.06-13.834 15.455-30.482 29.724-49.933 42.813-19.563 13.163-45.328 24.69-77.308 34.626z" fill="#FFF" fill-rule="nonzero"/><text font-family="Roboto-Black, Roboto" font-size="52" font-weight="700" fill="#FFF"><tspan x="32" y="430">template</tspan></text></g></svg>